<?xml version="1.0" standalone="no"?>
<!DOCTYPE svg PUBLIC "-//W3C//DTD SVG 20010904//EN"
 "http://www.w3.org/TR/2001/REC-SVG-20010904/DTD/svg10.dtd">
<svg version="1.0" xmlns="http://www.w3.org/2000/svg"
 width="387.000000pt" height="387.000000pt" viewBox="0 0 387.000000 387.000000"
 preserveAspectRatio="xMidYMid meet">
<metadata>
Created by potrace 1.11, written by Peter Selinger 2001-2013
</metadata>
<g transform="translate(0.000000,387.000000) scale(0.100000,-0.100000)"
fill="#000000" stroke="none">
<path d="M3284 3534 c-13 -7 -24 -10 -24 -6 0 4 -4 1 -9 -6 -4 -7 -30 -15 -57
-18 -27 -3 -53 -9 -58 -14 -6 -6 -18 -10 -27 -10 -25 0 -300 -138 -324 -163
-31 -32 -69 -62 -78 -62 -4 0 -11 -5 -15 -10 -4 -6 -16 -11 -26 -10 -11 0 -30
-10 -42 -22 -12 -11 -40 -31 -62 -42 -22 -11 -55 -34 -73 -51 -19 -16 -38 -30
-42 -30 -13 0 -198 -149 -281 -226 -38 -35 -74 -64 -79 -64 -5 0 -22 -9 -38
-21 -16 -11 -29 -18 -29 -14 0 3 -12 -1 -28 -9 -15 -8 -46 -13 -70 -13 -23 1
-42 -1 -42 -4 0 -7 -23 -9 -209 -14 -117 -3 -125 -2 -169 22 -52 29 -72 46
-72 62 0 6 -4 11 -10 11 -5 0 -18 8 -28 18 -10 9 -29 24 -42 32 -12 8 -35 24
-49 36 -42 34 -145 98 -153 96 -5 -1 -8 3 -8 9 0 5 -4 8 -9 4 -6 -3 -14 3 -20
12 -6 10 -11 15 -11 11 0 -4 -23 6 -51 23 -60 35 -166 89 -174 89 -3 -1 -27 9
-53 20 -70 32 -210 65 -271 65 -49 0 -56 -3 -86 -38 -34 -40 -35 -46 -36 -202
0 -75 7 -210 11 -210 2 0 8 -49 13 -107 1 -14 5 -24 10 -21 4 2 7 1 8 -4 1 -4
2 -20 3 -34 2 -14 6 -34 9 -43 4 -9 3 -15 -1 -12 -12 7 -2 -70 44 -354 4 -25
5 -79 4 -120 -2 -41 -4 -90 -4 -107 -1 -18 -4 -33 -7 -33 -5 0 -42 -86 -54
-127 -3 -13 -11 -23 -16 -23 -6 0 -7 -4 -4 -10 3 -5 2 -10 -3 -10 -5 0 -9 -7
-10 -15 -1 -8 -3 -22 -4 -30 -1 -8 -6 -15 -11 -15 -5 0 -7 -7 -3 -15 3 -8 2
-15 -3 -15 -10 0 -34 -68 -51 -145 -7 -28 -14 -59 -17 -70 -7 -28 -9 -185 -3
-185 4 0 14 -34 25 -75 10 -41 24 -76 32 -79 8 -3 12 -10 9 -15 -3 -5 1 -11 9
-15 8 -3 15 -12 15 -21 0 -8 5 -15 10 -15 6 0 10 -7 10 -15 0 -8 5 -15 10 -15
6 0 10 -5 10 -11 0 -6 15 -25 33 -43 17 -18 43 -46 57 -62 21 -25 48 -44 70
-48 3 -1 34 -17 70 -37 36 -20 79 -41 95 -46 17 -6 39 -15 50 -19 11 -4 23 -8
27 -8 4 -1 16 -8 26 -17 10 -8 23 -14 30 -11 7 2 12 0 12 -5 0 -5 30 -20 67
-33 38 -12 83 -34 101 -47 18 -14 39 -26 45 -27 30 -5 95 -29 130 -47 20 -11
37 -17 37 -14 0 4 7 -1 16 -9 10 -11 34 -16 75 -16 35 0 59 -4 59 -11 0 -5 4
-8 8 -5 4 3 28 0 53 -5 65 -15 96 -20 172 -23 37 -2 70 -6 73 -9 3 -3 19 -1
35 3 17 5 31 5 34 -1 4 -5 11 -9 16 -9 6 0 7 5 3 12 -5 7 -3 8 5 4 19 -12 121
-14 114 -3 -3 6 -2 7 4 4 19 -12 63 -15 69 -5 4 7 9 6 14 -2 6 -9 16 -8 41 6
39 20 122 28 112 10 -5 -8 -3 -8 8 0 8 5 25 10 39 9 14 -1 45 6 70 15 25 10
51 15 58 13 15 -6 161 23 200 39 29 12 44 16 82 20 14 2 34 11 44 21 11 9 24
13 28 9 9 -9 201 37 206 50 2 4 7 6 12 3 4 -3 13 2 20 10 7 8 20 15 30 15 15
0 28 8 77 50 7 5 16 10 21 10 5 0 15 7 22 15 7 9 29 23 49 32 20 9 39 22 43
27 4 6 8 8 8 4 0 -4 13 5 28 20 15 15 27 30 26 33 -2 3 15 22 37 43 21 21 39
45 39 52 0 8 4 14 8 14 4 0 9 11 10 26 1 14 6 33 12 43 5 10 6 21 3 25 -3 3
-2 6 4 6 9 0 24 34 27 62 1 3 4 9 8 13 4 4 3 18 -2 31 -6 14 -6 26 0 29 5 3 7
16 4 29 -2 14 -6 44 -8 68 -3 24 -7 54 -11 68 -4 14 -7 31 -7 38 -1 6 -5 12
-10 12 -4 0 -11 18 -14 40 -4 22 -10 40 -15 40 -5 0 -9 8 -9 18 0 10 -3 22 -7
26 -8 7 -15 40 -16 74 -1 12 -5 22 -9 22 -4 0 -8 9 -8 19 0 11 -4 23 -10 26
-5 3 -14 24 -20 45 -6 22 -15 40 -21 40 -6 0 -7 4 -4 10 3 5 -2 24 -12 42 -9
18 -17 35 -18 38 0 3 -3 10 -6 15 -12 20 2 213 17 236 3 5 2 9 -3 9 -4 0 -8
11 -8 25 0 14 5 25 10 25 6 0 3 5 -5 10 -9 6 -10 10 -3 10 6 0 10 9 8 20 -2
11 0 18 6 15 5 -4 9 3 9 14 0 11 4 22 9 25 11 7 8 76 -4 95 -6 10 -4 12 5 6
10 -6 12 -3 8 13 -4 12 0 26 8 33 8 6 14 18 14 26 0 8 12 40 26 71 28 60 39
122 22 122 -6 0 -5 6 2 15 6 8 9 19 5 25 -3 5 -1 10 4 10 6 0 10 3 10 8 -1 4
0 10 1 15 1 4 3 10 4 15 1 4 9 18 18 32 24 37 66 239 82 390 2 19 5 35 6 35 1
0 3 51 4 113 1 61 -1 112 -5 112 -5 0 -6 9 -4 20 2 11 -1 20 -7 20 -6 0 -8 3
-5 6 7 7 -41 53 -58 55 -48 7 -111 3 -131 -7z"/>
</g>
</svg>
